<svg width="38" height="37" viewBox="0 0 38 37" fill="none" xmlns="http://www.w3.org/2000/svg">
<path d="M19 0C29.4667 0 38 8.25636 38 18.5C38 28.7436 29.4667 37 19 37C8.53333 37 0 28.7436 0 18.5C0 8.25636 8.53333 0 19 0ZM19 1C9.05887 1 1 8.83502 1 18.5C1 28.165 9.05887 36 19 36C12.3726 36 7 30.6274 7 24C7 19.105 9.93207 14.897 14.1348 13.0303C12.8192 11.7576 12 9.97498 12 8C12 4.13401 15.134 1 19 1ZM19 1C22.866 1 26 4.13401 26 8C26 9.97523 25.1801 11.7576 23.8643 13.0303C28.0674 14.8968 31 19.1046 31 24C31 30.6274 25.6274 36 19 36C28.9411 36 37 28.165 37 18.5C37 8.83502 28.9411 1 19 1Z" fill="#D9D9D9"/>
</svg>
